<?xml version="1.0" standalone="no"?>
<!DOCTYPE svg PUBLIC "-//W3C//DTD SVG 20010904//EN"
 "http://www.w3.org/TR/2001/REC-SVG-20010904/DTD/svg10.dtd">
<svg version="1.0" xmlns="http://www.w3.org/2000/svg"
 width="512.000000pt" height="512.000000pt" viewBox="0 0 512.000000 512.000000"
 preserveAspectRatio="xMidYMid meet">
<metadata>
Created by potrace 1.11, written by Peter Selinger 2001-2013
</metadata>
<g transform="translate(0.000000,512.000000) scale(0.100000,-0.100000)"
fill="#000000" stroke="none">
<path d="M0 2560 l0 -2560 2560 0 2560 0 0 2560 0 2560 -2560 0 -2560 0 0
-2560z m2013 2106 c46 -19 94 -77 102 -124 5 -29 13 -42 32 -51 25 -11 25 -13
21 -109 -3 -82 -8 -107 -31 -154 -53 -109 -160 -178 -272 -178 -67 0 -110 28
-144 94 -73 142 -1 436 125 513 45 26 116 31 167 9z m1760 -855 c69 -30 111
-65 132 -111 17 -39 17 -45 1 -163 -18 -124 -46 -268 -135 -687 -69 -322 -93
-494 -94 -670 -2 -172 15 -244 68 -297 28 -28 40 -33 83 -33 34 0 59 7 83 23
48 32 104 118 140 213 34 89 46 95 89 49 47 -50 34 -158 -37 -299 -45 -90
-145 -191 -228 -232 -53 -26 -70 -29 -155 -29 -78 0 -102 4 -136 22 -90 48
-157 159 -191 314 -25 115 -24 389 1 549 21 138 84 488 92 513 5 15 1 18 -22
15 -24 -3 -31 -12 -56 -73 -144 -351 -286 -959 -314 -1342 -6 -93 -6 -93 -41
-114 -85 -53 -200 -27 -248 56 -54 90 -60 153 -59 580 0 343 11 612 30 798 6
52 5 57 -13 57 -20 0 -19 5 -114 -290 -60 -187 -150 -533 -178 -686 -11 -61
-25 -169 -31 -240 -7 -71 -14 -132 -17 -137 -2 -4 -23 -17 -45 -28 -32 -16
-54 -20 -99 -17 -132 10 -209 123 -240 355 -14 108 -7 448 16 683 47 488 152
1019 225 1139 20 32 23 33 68 27 61 -8 170 -64 190 -97 14 -25 11 -47 -57
-375 -39 -192 -83 -416 -97 -499 -27 -165 -43 -367 -27 -350 6 6 46 118 91
250 194 580 314 901 348 933 30 27 75 29 159 7 110 -29 165 -82 165 -160 0
-22 -16 -186 -35 -365 -43 -411 -57 -579 -53 -655 l3 -60 73 225 c195 601 228
696 287 845 79 201 146 345 170 369 16 16 29 18 90 13 38 -3 92 -15 118 -26z
m-1887 -155 c68 -18 154 -65 154 -84 0 -8 -9 -85 -20 -171 -11 -86 -42 -392
-70 -680 -28 -289 -62 -613 -75 -720 -107 -856 -250 -1236 -477 -1267 -98 -14
-426 39 -507 81 -93 48 -113 175 -41 250 48 49 69 51 142 11 72 -39 198 -90
276 -110 l53 -14 20 31 c108 177 234 1091 309 2242 21 330 30 398 57 428 20
21 105 23 179 3z"/>
</g>
</svg>
