<?xml version="1.0" standalone="no"?>
<!DOCTYPE svg PUBLIC "-//W3C//DTD SVG 20010904//EN"
 "http://www.w3.org/TR/2001/REC-SVG-20010904/DTD/svg10.dtd">
<svg version="1.0" xmlns="http://www.w3.org/2000/svg"
 width="400.000000pt" height="400.000000pt" viewBox="0 0 400.000000 400.000000"
 preserveAspectRatio="xMidYMid meet">
<metadata>
Created by potrace 1.11, written by Peter Selinger 2001-2013
</metadata>
<g transform="translate(0.000000,400.000000) scale(0.100000,-0.100000)"
fill="#000000" stroke="none">
<path d="M1281 3974 c-41 -17 -74 -54 -105 -114 -46 -89 -61 -158 -61 -280 0
-68 5 -93 22 -125 54 -101 152 -123 278 -65 105 49 174 165 177 301 2 76 -7
106 -31 114 -12 3 -21 19 -26 42 -21 111 -146 174 -254 127z"/>
<path d="M2987 3128 c-65 -59 -244 -530 -432 -1133 -82 -260 -88 -280 -97
-290 -7 -7 -11 6 -10 35 0 27 14 253 17 280 2 19 6 67 9 105 4 39 8 79 10 90
2 11 7 52 10 90 4 39 9 83 11 99 2 16 7 64 11 105 3 42 8 85 10 96 2 10 6 61
10 112 6 84 4 95 -16 128 -12 20 -41 45 -64 58 -87 46 -212 57 -246 21 -22
-24 -103 -238 -252 -664 -19 -52 -65 -189 -103 -305 -79 -236 -73 -221 -82
-212 -25 25 16 301 123 826 41 200 74 369 74 376 0 39 -115 108 -202 120 -45
7 -48 6 -67 -26 -19 -31 -55 -126 -66 -175 -2 -10 -16 -66 -29 -124 -14 -58
-32 -143 -40 -190 -9 -47 -17 -94 -20 -105 -2 -12 -8 -48 -12 -80 -4 -33 -8
-62 -9 -65 -1 -3 -5 -34 -9 -70 -5 -36 -10 -73 -12 -84 -2 -10 -6 -44 -9 -75
-3 -31 -8 -67 -10 -81 -3 -14 -7 -59 -10 -100 -4 -41 -8 -95 -11 -120 -3 -25
-7 -153 -9 -285 -3 -187 -1 -257 11 -319 39 -203 115 -300 237 -305 56 -2 126
23 143 50 4 7 8 44 10 83 4 91 20 218 39 306 3 14 7 36 10 50 4 20 25 118 30
140 1 3 5 21 9 40 42 188 208 719 229 732 6 4 15 4 19 2 7 -5 4 -113 -7 -219
-22 -211 -27 -972 -7 -1079 15 -79 45 -152 73 -179 61 -57 174 -60 238 -7 20
18 24 31 26 88 3 76 14 199 20 222 2 8 7 35 10 60 6 53 10 79 31 183 8 42 18
90 20 105 33 179 144 559 225 769 31 79 44 100 57 98 9 -2 20 -4 23 -4 4 -1 0
-34 -7 -73 -8 -40 -17 -88 -20 -107 -3 -18 -8 -43 -10 -55 -2 -11 -7 -41 -10
-66 -3 -25 -8 -48 -10 -51 -2 -4 -6 -31 -10 -60 -3 -30 -8 -56 -9 -59 -2 -3
-7 -33 -10 -65 -4 -33 -11 -82 -15 -110 -14 -85 -5 -351 14 -440 48 -217 152
-329 310 -334 78 -2 152 18 217 60 128 82 235 257 244 398 4 72 -9 102 -56
127 -28 14 -29 13 -35 -13 -12 -50 -84 -192 -116 -229 -41 -47 -94 -73 -138
-68 -103 12 -150 125 -145 346 2 94 6 132 21 253 10 76 32 206 49 285 3 14 7
34 9 45 3 11 19 85 36 165 82 382 82 383 109 545 23 143 21 194 -9 238 -30 44
-71 71 -147 96 -84 28 -145 28 -176 -1z"/>
<path d="M1147 2974 c-40 -21 -53 -69 -62 -229 -3 -55 -7 -125 -10 -155 -2
-30 -6 -100 -10 -155 -4 -55 -8 -120 -10 -145 -2 -25 -6 -83 -10 -130 -3 -47
-8 -105 -10 -130 -2 -25 -7 -74 -10 -110 -3 -36 -7 -85 -10 -110 -2 -25 -7
-72 -10 -105 -3 -33 -8 -78 -10 -100 -2 -22 -7 -67 -10 -100 -3 -33 -8 -73
-10 -90 -3 -16 -7 -55 -10 -85 -3 -30 -7 -71 -10 -90 -2 -19 -7 -55 -10 -80
-3 -25 -7 -56 -10 -70 -2 -14 -7 -47 -10 -75 -13 -104 -16 -121 -25 -175 -5
-30 -12 -73 -15 -95 -3 -22 -8 -47 -11 -55 -3 -8 -8 -33 -11 -55 -15 -112 -79
-315 -111 -356 l-18 -21 -94 31 c-52 18 -141 54 -198 82 l-103 50 -39 -22
c-57 -32 -77 -79 -71 -171 2 -43 66 -103 130 -122 122 -36 247 -56 381 -61
114 -5 154 9 221 77 101 101 195 354 259 693 11 61 22 121 25 135 3 14 8 50
11 80 3 30 7 57 9 60 2 3 6 30 9 60 3 30 8 64 10 75 2 11 7 49 11 85 4 36 9
79 11 95 2 17 6 55 9 85 4 30 8 66 10 80 2 14 6 59 10 100 3 41 8 86 10 100 2
14 7 59 10 100 4 41 8 86 10 100 2 14 6 61 9 105 4 44 9 96 11 115 3 19 7 62
10 95 2 33 7 85 10 115 3 30 8 75 11 100 2 25 6 61 9 80 2 19 7 62 10 95 3 33
10 89 15 125 14 95 14 95 -37 122 -92 49 -222 74 -266 52z"/>
</g>
</svg>
